<?xml version="1.0" encoding="utf-8" ?>
<svg xmlns="http://www.w3.org/2000/svg" xmlns:xlink="http://www.w3.org/1999/xlink" width="1024" height="1024">
	<path fill="#C3C0DB" transform="scale(2 2)" d="M249.626 98.8498C249.593 81.7378 245.98 71.6716 265.455 69.2334C281.557 68.0996 297.986 72.8492 309.761 84.1286C314.618 88.7813 320.909 96.6435 320.947 103.747C320.982 110.278 315.563 115.069 309.097 114.683C294.811 113.829 302.442 92.7079 272.76 90.9207L272.772 127.311C272.775 134.754 273.488 143.57 272.004 150.76C268.783 166.368 254.814 178.09 238.854 178.864C227.75 179.402 220.065 170.123 226.151 160.537C233.769 148.536 249.593 165.256 249.621 137.267L249.626 122.314C224.106 129.144 198.405 135.534 172.758 141.873L172.758 193.304L317.702 193.292C346.255 193.303 358.819 206.314 358.806 234.629L358.797 248.086C369.043 244.418 379.115 239.281 389.001 234.751L441.623 210.709C441.469 215.448 441.619 220.239 441.619 224.983L441.623 340.776C431.17 336.158 420.954 330.717 410.656 325.732C393.258 317.676 376.071 308.308 358.797 300.48L358.809 383.202C358.81 388.02 358.945 392.887 358.383 397.68C352.153 450.828 275.579 459.55 257.66 409.686L119.177 409.694C112.479 409.695 105.284 410.153 98.6756 408.979C84.6962 406.495 73.6997 394.473 71.1265 380.758C70.0341 374.935 70.5147 368.541 70.5129 362.621L70.4335 227.771C70.3087 212.007 79.8895 198.069 95.4346 194.31C102.73 192.546 111.173 193.292 118.665 193.292L149.27 193.304L149.267 153.361C149.266 144.811 146.402 127.333 156.139 122.86C159.106 121.498 162.516 120.99 165.663 120.179L224.284 105.186C232.728 103.069 241.215 101.093 249.626 98.8498ZM104.772 215.574C91.8473 217.085 93.2946 228.794 93.2912 238.386L93.29 357.948C93.2993 385.403 90.8026 386.716 122.05 386.713L254.317 386.708C254.108 366.616 269.046 347.538 287.633 340.776C305.72 333.866 320.322 336.871 336.274 346.041L336.282 239.474C336.288 220.332 336.492 215.534 313.527 215.554L152.827 215.576C137.424 215.575 119.908 214.646 104.772 215.574Z"/>
	<path fill="#C3C0DB" transform="scale(2 2)" d="M187.135 362.26C153.421 364.722 123.299 337.105 122.086 303.503C120.893 270.444 146.719 240.488 180.387 239.497C196.099 237.465 214.413 245.057 225.549 255.866C265.116 294.271 238.058 361.688 187.135 362.26ZM181.465 277.597C151.244 280.678 151.963 325.732 186.274 324.738C206.762 321.887 215.603 295.453 198.096 282.523C193.521 279.143 187.187 277.02 181.465 277.597Z"/>
</svg>
